<svg width="24" height="26" viewBox="0 0 24 26" fill="none" xmlns="http://www.w3.org/2000/svg">
<path d="M1 22.3333V5.26667C1 3.7732 1 3.02645 1.29065 2.45603C1.54631 1.95425 1.95425 1.54631 2.45603 1.29065C3.02645 1 3.7732 1 5.26667 1H18.0667C19.5601 1 20.3069 1 20.8773 1.29065C21.3791 1.54631 21.7871 1.95425 22.0427 2.45603C22.3333 3.02645 22.3333 3.7732 22.3333 5.26667V19.6667H3.66667C2.19391 19.6667 1 20.8605 1 22.3333ZM1 22.3333C1 23.8061 2.19391 25 3.66667 25H22.3333M7.66667 6.33333H15.6667M7.66667 11.6667H15.6667M21 19.6667V25" stroke="black" stroke-width="2" stroke-linecap="round" stroke-linejoin="round"/>
</svg>
