<svg width="19" height="25" viewBox="0 0 19 25" fill="none" xmlns="http://www.w3.org/2000/svg">
<path d="M5.66953 7.14286C4.35444 7.14286 3.09229 7.66097 2.1565 8.58497L1.48696 9.24607C0.535528 10.1855 0 11.4669 0 12.804V20C0 22.7614 2.23858 25 5 25H13.0851C15.8465 25 18.0851 22.7614 18.0851 20V12.804C18.0851 11.4669 17.5496 10.1855 16.5981 9.24607L15.9286 8.58497C14.9928 7.66097 13.7307 7.14286 12.4156 7.14286H5.66953ZM7.23404 12.5C7.23404 11.5138 8.03353 10.7143 9.01976 10.7143H9.06535C10.0516 10.7143 10.8511 11.5138 10.8511 12.5C10.8511 13.4862 11.6506 14.2857 12.6368 14.2857H12.6824C13.6686 14.2857 14.4681 15.0852 14.4681 16.0714C14.4681 17.0577 13.6686 17.8571 12.6824 17.8571H12.6368C11.6506 17.8571 10.8511 18.6566 10.8511 19.6429C10.8511 20.6291 10.0516 21.4286 9.06535 21.4286H9.01975C8.03353 21.4286 7.23404 20.6291 7.23404 19.6429C7.23404 18.6566 6.43455 17.8571 5.44833 17.8571H5.40274C4.41651 17.8571 3.61702 17.0577 3.61702 16.0714C3.61702 15.0852 4.41651 14.2857 5.40273 14.2857H5.44833C6.43455 14.2857 7.23404 13.4862 7.23404 12.5ZM6.29559 0C4.81625 0 3.61702 1.19924 3.61702 2.67857C3.61702 4.15791 4.81626 5.35714 6.29559 5.35714H11.7895C13.2688 5.35714 14.4681 4.15791 14.4681 2.67857C14.4681 1.19924 13.2688 0 11.7895 0H6.29559Z" fill="black"/>
</svg>
