<svg width="24" height="24" viewBox="0 0 24 24" fill="none" xmlns="http://www.w3.org/2000/svg">
<g clip-path="url(#clip0_15_5454)">
<path d="M23.3627 10.462L13.5391 0.63691C13.1314 0.229183 12.5775 0 12.0012 0C11.4243 0 10.8704 0.229183 10.4627 0.63691L0.637033 10.462C0.0152634 11.0838 -0.171111 12.0115 0.165616 12.8243C0.502865 13.6372 1.29587 14.1592 2.17554 14.1592H3.43056V21.1866C3.43056 22.2375 4.26951 23.088 5.32093 23.088H6.99308V16.7351C6.99308 16.2511 7.39297 15.8731 7.8764 15.8731H11.1252C11.6086 15.8731 11.9986 16.2516 11.9986 16.7351V23.0875H18.6804C19.7313 23.0875 20.566 22.237 20.566 21.1861V14.1592H21.8247C22.7044 14.1592 23.4974 13.6372 23.8346 12.8243C24.1708 12.0115 23.985 11.0843 23.3627 10.462Z" fill="black"/>
</g>
<defs>
<clipPath id="clip0_15_5454">
<rect width="24" height="24" fill="white"/>
</clipPath>
</defs>
</svg>
