<svg width="28" height="28" viewBox="0 0 28 28" fill="none" xmlns="http://www.w3.org/2000/svg">
<circle cx="14" cy="14" r="14" fill="white"/>
<path opacity="0.4" d="M12.8096 10.2025L12.4824 6.50325C12.4824 5.67308 13.1621 5 14.0003 5C14.8386 5 15.5182 5.67308 15.5182 6.50325L15.1911 10.2025C15.1911 10.8537 14.6579 11.3817 14.0003 11.3817C13.3416 11.3817 12.8096 10.8537 12.8096 10.2025Z" fill="black"/>
<path d="M12.8698 22.6247C12.8115 22.5669 12.5647 22.3509 12.3598 22.148C11.0766 20.9644 8.97815 17.8739 8.33596 16.2572C8.23352 16.0117 8.01542 15.391 8 15.0583C8 14.7408 8.0738 14.4376 8.2192 14.1485C8.42299 13.7874 8.74463 13.4994 9.12355 13.3401C9.38572 13.2387 10.1733 13.0794 10.1876 13.0794C11.0479 12.9212 12.4469 12.835 13.9934 12.835C15.465 12.835 16.8067 12.9212 17.6813 13.051C17.6967 13.0652 18.6738 13.2245 19.0086 13.3979C19.6211 13.7154 20 14.3361 20 15.0005V15.0583C19.9857 15.4914 19.6057 16.4012 19.5924 16.4012C18.9502 17.9317 16.9532 20.9491 15.6258 22.1622C15.6258 22.1622 15.2844 22.5047 15.0718 22.6531C14.7656 22.8844 14.3866 23 14.0077 23C13.5847 23 13.1915 22.8702 12.8698 22.6247Z" fill="black"/>
</svg>
