<svg width="14" height="15" viewBox="0 0 14 15" fill="none" xmlns="http://www.w3.org/2000/svg">
<path opacity="0.5" d="M11.7555 7.50001H4.46708V4.47951C4.46708 3.31936 5.3987 2.35549 6.56249 2.34377C7.73803 2.33206 8.69904 3.2842 8.69904 4.45315V4.92189C8.69904 5.31154 9.0135 5.62502 9.40437 5.62502H10.3448C10.7357 5.62502 11.0501 5.31154 11.0501 4.92189V4.45315C11.0501 1.99221 9.03701 -0.0087602 6.56837 2.88433e-05C4.09972 0.00881789 2.11598 2.03616 2.11598 4.49709V7.50001H1.41066C0.631856 7.50001 0 8.1299 0 8.90626V13.5938C0 14.3701 0.631856 15 1.41066 15H11.7555C12.5343 15 13.1661 14.3701 13.1661 13.5938V8.90626C13.1661 8.1299 12.5343 7.50001 11.7555 7.50001ZM7.75861 11.9531C7.75861 12.6006 7.23255 13.125 6.58306 13.125C5.93357 13.125 5.40751 12.6006 5.40751 11.9531V10.5469C5.40751 9.89942 5.93357 9.37501 6.58306 9.37501C7.23255 9.37501 7.75861 9.89942 7.75861 10.5469V11.9531Z" fill="#1F1F1F"/>
</svg>
