<svg width="122" height="12" viewBox="0 0 122 12" fill="none" xmlns="http://www.w3.org/2000/svg">
<path d="M1 5.25C0.585786 5.25 0.25 5.58579 0.25 6C0.25 6.41421 0.585786 6.75 1 6.75V5.25ZM121.53 6.53033C121.823 6.23744 121.823 5.76256 121.53 5.46967L116.757 0.696699C116.464 0.403806 115.99 0.403806 115.697 0.696699C115.404 0.989593 115.404 1.46447 115.697 1.75736L119.939 6L115.697 10.2426C115.404 10.5355 115.404 11.0104 115.697 11.3033C115.99 11.5962 116.464 11.5962 116.757 11.3033L121.53 6.53033ZM1 6.75H121V5.25H1V6.75Z" fill="#1F1F1F"/>
</svg>
