<svg width="28" height="28" viewBox="0 0 28 28" fill="none" xmlns="http://www.w3.org/2000/svg">
<circle cx="14" cy="14" r="14" fill="white"/>
<path opacity="0.4" d="M15.1904 17.7975L15.5176 21.4967C15.5176 22.3269 14.8379 23 13.9997 23C13.1614 23 12.4818 22.3269 12.4818 21.4967L12.8089 17.7975C12.8089 17.1463 13.3421 16.6183 13.9997 16.6183C14.6584 16.6183 15.1904 17.1463 15.1904 17.7975Z" fill="black"/>
<path d="M15.1302 5.37526C15.1885 5.43308 15.4353 5.64908 15.6402 5.85198C16.9234 7.03561 19.0218 10.1261 19.664 11.7428C19.7665 11.9883 19.9846 12.609 20 12.9417C20 13.2592 19.9262 13.5624 19.7808 13.8515C19.577 14.2126 19.2554 14.5006 18.8764 14.6599C18.6143 14.7613 17.8267 14.9206 17.8124 14.9206C16.9521 15.0788 15.5531 15.165 14.0066 15.165C12.535 15.165 11.1933 15.0788 10.3187 14.949C10.3033 14.9348 9.32623 14.7755 8.99137 14.6021C8.37892 14.2846 8 13.6639 8 12.9995V12.9417C8.01432 12.5086 8.39435 11.5988 8.40756 11.5988C9.04975 10.0683 11.0468 7.05088 12.3742 5.8378C12.3742 5.8378 12.7156 5.49526 12.9282 5.3469C13.2344 5.11563 13.6134 4.99999 13.9923 4.99999C14.4153 4.99999 14.8085 5.12981 15.1302 5.37526Z" fill="black"/>
</svg>
