<svg width="12" height="25" viewBox="0 0 12 25" fill="none" xmlns="http://www.w3.org/2000/svg">
<path d="M5.0562 19.6629C5.0562 18.2667 3.92433 17.1348 2.5281 17.1348C1.13187 17.1348 0 18.2667 0 19.6629V22.4719C0 23.8681 1.13187 25 2.5281 25C3.92433 25 5.0562 23.8681 5.0562 22.4719V19.6629Z" fill="black"/>
<path d="M11.7978 16.8539C11.7978 15.4577 10.6659 14.3258 9.26965 14.3258C7.87342 14.3258 6.74155 15.4577 6.74155 16.8539V22.4719C6.74155 23.8681 7.87342 25 9.26965 25C10.6659 25 11.7978 23.8681 11.7978 22.4719V16.8539Z" fill="black"/>
<path d="M11.7978 11.2359C11.7978 10.4603 11.1689 9.83145 10.3933 9.83145H8.14604C7.37037 9.83145 6.74155 10.4603 6.74155 11.2359C6.74155 12.0116 7.37037 12.6404 8.14605 12.6404H10.3933C11.1689 12.6404 11.7978 12.0116 11.7978 11.2359Z" fill="black"/>
<path d="M4.2135 12.6404C3.74809 12.6404 3.3708 12.2631 3.3708 11.7977V8.00562C3.3708 7.77292 3.55944 7.58428 3.79214 7.58428C4.02484 7.58428 4.21348 7.39564 4.21348 7.16294V6.32021C4.21348 6.08752 4.02484 5.89888 3.79214 5.89888H3.65171C3.49657 5.89888 3.3708 5.77311 3.3708 5.61797C3.3708 5.46283 3.49657 5.33706 3.65171 5.33706H4.07305C4.46089 5.33706 4.77529 5.02265 4.77529 4.63481V4.35391C4.77529 3.96607 4.46089 3.65166 4.07305 3.65166H3.65169C3.49656 3.65166 3.3708 3.5259 3.3708 3.37078C3.3708 3.21565 3.49656 3.08989 3.65169 3.08989H3.79214C4.02484 3.08989 4.21348 2.90125 4.21348 2.66855V1.82583C4.21348 1.59313 4.02484 1.40449 3.79214 1.40449C3.55944 1.40449 3.3708 1.21585 3.3708 0.983154V0.702246C3.3708 0.314407 3.0564 0 2.66856 0H2.38765C1.99981 0 1.6854 0.314406 1.6854 0.702246V0.98313C1.6854 1.21584 1.49675 1.40449 1.26404 1.40449C1.03133 1.40449 0.842676 1.59314 0.842676 1.82585V2.66853C0.842676 2.90124 1.03133 3.08989 1.26404 3.08989H1.40452C1.55964 3.08989 1.6854 3.21565 1.6854 3.37078C1.6854 3.5259 1.55964 3.65166 1.40452 3.65166H0.983155C0.595315 3.65166 0.280909 3.96607 0.280909 4.35391V4.63482C0.280909 5.02266 0.595315 5.33706 0.983154 5.33706H1.40449C1.55963 5.33706 1.6854 5.46283 1.6854 5.61797C1.6854 5.77311 1.55963 5.89888 1.40449 5.89888H1.26404C1.03133 5.89888 0.842676 6.08753 0.842676 6.32024V7.16292C0.842676 7.39563 1.03133 7.58428 1.26404 7.58428C1.49675 7.58428 1.6854 7.77293 1.6854 8.00564V11.7977C1.6854 12.2631 1.30811 12.6404 0.8427 12.6404C0.37729 12.6404 0 13.0177 0 13.4831V14.0449C0 14.8206 0.628812 15.4494 1.40449 15.4494H3.65171C4.42739 15.4494 5.0562 14.8206 5.0562 14.0449V13.4831C5.0562 13.0177 4.67891 12.6404 4.2135 12.6404Z" fill="black"/>
</svg>
