<svg width="25" height="23" viewBox="0 0 25 23" fill="none" xmlns="http://www.w3.org/2000/svg">
<path d="M24.1919 7.97224H22.6244V3.98637C22.6244 3.77495 22.5392 3.57218 22.3877 3.42268C22.2362 3.27318 22.0307 3.1892 21.8164 3.1892H2.42404C2.20974 3.1892 2.00422 3.10521 1.85269 2.95571C1.70116 2.80621 1.61603 2.60345 1.61603 2.39202C1.61603 2.1806 1.70116 1.97783 1.85269 1.82833C2.00422 1.67884 2.20974 1.59485 2.42404 1.59485H21.4932C21.7075 1.59485 21.913 1.51086 22.0645 1.36136C22.216 1.21186 22.3012 1.0091 22.3012 0.797673C22.3012 0.586249 22.216 0.383484 22.0645 0.233985C21.913 0.0844859 21.7075 0.000497957 21.4932 0.000497957H2.42404C2.11206 -0.0058477 1.80187 0.0485096 1.51119 0.160465C1.22051 0.27242 0.955031 0.43978 0.729924 0.652983C0.504818 0.866186 0.324493 1.12106 0.199251 1.40303C0.0740083 1.68501 0.00630199 1.98856 0 2.29636V19.037C0.0010576 19.4701 0.0886908 19.8986 0.257881 20.2982C0.42707 20.6978 0.674493 21.0605 0.985979 21.3656C1.29746 21.6706 1.66689 21.9121 2.07311 22.0761C2.47932 22.2401 2.91434 22.3235 3.35326 22.3214H21.8164C22.0307 22.3214 22.2362 22.2374 22.3877 22.0879C22.5392 21.9384 22.6244 21.7356 22.6244 21.5242V17.5383H24.1919C24.2939 17.546 24.3964 17.5329 24.4931 17.5001C24.5898 17.4673 24.6787 17.4153 24.7544 17.3474C24.83 17.2795 24.8908 17.1971 24.933 17.1052C24.9753 17.0132 24.998 16.9138 24.9999 16.8129V8.84117C25.0026 8.62209 24.9205 8.41025 24.7704 8.24881C24.6203 8.08736 24.4134 7.98846 24.1919 7.97224ZM23.4324 15.944H16.4996C15.6716 15.9149 14.8891 15.5627 14.324 14.9649C13.7589 14.367 13.4574 13.5723 13.4857 12.7553C13.4574 11.9383 13.7589 11.1436 14.324 10.5457C14.8891 9.94784 15.6716 9.59569 16.4996 9.56659H23.4324V15.944Z" fill="black"/>
<path d="M18.3036 14.2857C19.0433 14.2857 19.6429 13.6861 19.6429 12.9464C19.6429 12.2067 19.0433 11.6071 18.3036 11.6071C17.564 11.6071 16.9644 12.2067 16.9644 12.9464C16.9644 13.6861 17.564 14.2857 18.3036 14.2857Z" fill="black"/>
</svg>
