<svg width="25" height="25" viewBox="0 0 25 25" fill="none" xmlns="http://www.w3.org/2000/svg">
<g clip-path="url(#clip0_48_2122)">
<path d="M12.8906 10.9375H15.625V9.375H14.0625V8.59375H12.5V9.41469C12.026 9.51173 11.6049 9.78124 11.3183 10.171C11.0316 10.5608 10.8999 11.0431 10.9485 11.5244C10.9971 12.0058 11.2227 12.452 11.5815 12.7766C11.9403 13.1011 12.4068 13.281 12.8906 13.2812H13.6719C13.7755 13.2812 13.8748 13.3224 13.9481 13.3957C14.0213 13.4689 14.0625 13.5683 14.0625 13.6719C14.0625 13.7755 14.0213 13.8748 13.9481 13.9481C13.8748 14.0213 13.7755 14.0625 13.6719 14.0625H10.9375V15.625H12.5V16.4062H14.0625V15.5853C14.5365 15.4883 14.9576 15.2188 15.2442 14.829C15.5309 14.4392 15.6626 13.9569 15.614 13.4756C15.5654 12.9942 15.3398 12.548 14.981 12.2234C14.6222 11.8989 14.1557 11.719 13.6719 11.7188H12.8906C12.787 11.7188 12.6877 11.6776 12.6144 11.6043C12.5412 11.5311 12.5 11.4317 12.5 11.3281C12.5 11.2245 12.5412 11.1252 12.6144 11.0519C12.6877 10.9787 12.787 10.9375 12.8906 10.9375Z" fill="black"/>
<path d="M22.6562 10.1562H21.0781C21.0556 9.53907 20.9067 8.93308 20.6407 8.37574C20.3746 7.81841 19.997 7.32159 19.5312 6.91602V3.90625C19.5312 3.76116 19.4908 3.61894 19.4146 3.49552C19.3383 3.3721 19.2292 3.27236 19.0994 3.20748C18.9696 3.14259 18.8243 3.11513 18.6798 3.12816C18.5353 3.14119 18.3973 3.1942 18.2812 3.28125L15.3645 5.46875H11.7188C7.41445 5.46875 4.32547 8.00094 3.94648 11.7188H3.90625C3.69911 11.7186 3.5005 11.6362 3.35403 11.4897C3.20756 11.3432 3.12519 11.1446 3.125 10.9375V9.375H1.5625V10.9375C1.56318 11.5589 1.81033 12.1546 2.24972 12.594C2.68911 13.0334 3.28486 13.2806 3.90625 13.2812H3.96094C4.0743 14.3056 4.40726 15.2935 4.93712 16.1775C5.46697 17.0615 6.18126 17.8208 7.03125 18.4036V21.0938C7.03125 21.301 7.11356 21.4997 7.26007 21.6462C7.40659 21.7927 7.6053 21.875 7.8125 21.875H10.9375C11.1447 21.875 11.3434 21.7927 11.4899 21.6462C11.6364 21.4997 11.7188 21.301 11.7188 21.0938V19.5312H14.0625V21.0938C14.0625 21.301 14.1448 21.4997 14.2913 21.6462C14.4378 21.7927 14.6365 21.875 14.8438 21.875H17.9688C18.176 21.875 18.3747 21.7927 18.5212 21.6462C18.6677 21.4997 18.75 21.301 18.75 21.0938V18.4666C19.3143 18.199 19.8078 17.8024 20.1903 17.3087C20.5729 16.815 20.8339 16.2382 20.9522 15.625H22.6562C22.8635 15.625 23.0622 15.5427 23.2087 15.3962C23.3552 15.2497 23.4375 15.051 23.4375 14.8438V10.9375C23.4375 10.7303 23.3552 10.5316 23.2087 10.3851C23.0622 10.2386 22.8635 10.1562 22.6562 10.1562ZM21.875 14.0625H19.6281C19.3897 16.2132 18.9848 16.7855 17.1875 17.4339V20.3125H15.625V17.9688H10.1562V20.3125H8.59375V17.4827C7.65306 17.0352 6.85945 16.3288 6.30596 15.4462C5.75248 14.5637 5.46206 13.5417 5.46875 12.5C5.46875 8.72234 8.60789 7.03125 11.7188 7.03125H15.8855L17.9688 5.46875V7.63781C19.858 9.09039 19.463 10.1269 19.5455 11.7188H21.875V14.0625Z" fill="black"/>
</g>
<defs>
<clipPath id="clip0_48_2122">
<rect width="25" height="25" fill="white"/>
</clipPath>
</defs>
</svg>
