<svg width="25" height="24" viewBox="0 0 25 24" fill="none" xmlns="http://www.w3.org/2000/svg">
<path d="M16.625 15.5833C16.625 14.4323 13.3604 13.5 9.33333 13.5M16.625 15.5833C16.625 16.7344 13.3604 17.6667 9.33333 17.6667C5.30625 17.6667 2.04167 16.7344 2.04167 15.5833M16.625 15.5833V20.726C16.625 21.9125 13.3604 22.875 9.33333 22.875C5.30625 22.875 2.04167 21.9135 2.04167 20.726V15.5833M16.625 15.5833C20.6083 15.5833 23.9167 14.5552 23.9167 13.5V3.08333M9.33333 13.5C5.30625 13.5 2.04167 14.4323 2.04167 15.5833M9.33333 13.5C4.73125 13.5 1 12.4719 1 11.4167V6.20833M9.33333 4.125C4.73125 4.125 1 5.05729 1 6.20833M1 6.20833C1 7.35937 4.73125 8.29167 9.33333 8.29167C9.33333 9.34687 12.7219 10.375 16.7052 10.375C20.6875 10.375 23.9167 9.34687 23.9167 8.29167M23.9167 3.08333C23.9167 1.93229 20.6875 1 16.7052 1C12.7219 1 9.49375 1.93229 9.49375 3.08333M23.9167 3.08333C23.9167 4.23437 20.6875 5.16667 16.7052 5.16667C12.7229 5.16667 9.49375 4.23437 9.49375 3.08333M9.49375 3.08333V13.6729" stroke="black" stroke-width="1.5"/>
</svg>
