<svg width="25" height="25" viewBox="0 0 25 25" fill="none" xmlns="http://www.w3.org/2000/svg">
<path d="M12.4999 6.64056C13.1471 6.64056 13.6717 6.1159 13.6717 5.4687C13.6717 4.8215 13.1471 4.29684 12.4999 4.29684C11.8527 4.29684 11.328 4.8215 11.328 5.4687C11.328 6.1159 11.8527 6.64056 12.4999 6.64056Z" fill="black"/>
<path d="M1.56248 9.76554H23.4373C24.1381 9.76554 24.7529 9.29913 24.942 8.62414C25.131 7.94914 24.8474 7.23118 24.2486 6.86752L13.3112 0.226951C13.0616 0.0753899 12.7807 0 12.4999 0C12.219 0 11.9382 0.0753899 11.6889 0.226951L0.751551 6.86752C0.152728 7.23118 -0.131254 7.94954 0.0581977 8.62414C0.246868 9.29913 0.861706 9.76554 1.56248 9.76554ZM12.4999 3.51559C13.5788 3.51559 14.453 4.3898 14.453 5.4687C14.453 6.5476 13.5788 7.42181 12.4999 7.42181C11.421 7.42181 10.5468 6.5476 10.5468 5.4687C10.5468 4.3898 11.421 3.51559 12.4999 3.51559Z" fill="black"/>
<path d="M16.4061 10.5468H13.2811V20.3123H16.4061V10.5468Z" fill="black"/>
<path d="M21.0936 10.5468H17.9686V20.3123H21.0936V10.5468Z" fill="black"/>
<path d="M11.7186 10.5468H8.59367V20.3123H11.7186V10.5468Z" fill="black"/>
<path d="M7.03119 10.5468H3.90621V20.3123H7.03119V10.5468Z" fill="black"/>
<path d="M1.56249 22.656H23.4373C23.4373 21.7932 22.7377 21.0936 21.8748 21.0936H3.12497C2.26209 21.0936 1.56249 21.7932 1.56249 22.656Z" fill="black"/>
<path d="M24.783 23.4373H0.216795C0.0824211 23.6681 3.70543e-09 23.9326 3.70543e-09 24.2185V24.9998H24.9998V24.2185C24.9998 23.9326 24.9173 23.6681 24.783 23.4373Z" fill="black"/>
</svg>
