<svg width="25" height="26" viewBox="0 0 25 26" fill="none" xmlns="http://www.w3.org/2000/svg">
<path d="M22.6415 21.2168H2.35849C1.056 21.2168 0 22.2728 0 23.5753C0 24.8777 1.056 25.9337 2.35849 25.9337H22.6415C23.944 25.9337 25 24.8777 25 23.5753C25 22.2727 23.944 21.2168 22.6415 21.2168Z" fill="black"/>
<path d="M5.03145 19.7013C6.33395 19.7013 7.38994 18.6453 7.38994 17.3428V8.33335C7.38994 7.03085 6.33395 5.97486 5.03145 5.97486C3.72896 5.97486 2.67296 7.03085 2.67296 8.33335V17.3428C2.67292 18.6453 3.72896 19.7013 5.03145 19.7013Z" fill="black"/>
<path d="M12.5001 19.7013C13.8026 19.7013 14.8586 18.6453 14.8586 17.3428V5.34596C14.8586 4.04347 13.8026 2.98747 12.5001 2.98747C11.1976 2.98747 10.1416 4.04347 10.1416 5.34596V17.3428C10.1416 18.6453 11.1975 19.7013 12.5001 19.7013Z" fill="black"/>
<path d="M19.9685 19.7013C21.271 19.7013 22.3269 18.6453 22.3269 17.3428V2.35849C22.327 1.056 21.271 0 19.9685 0C18.666 0 17.61 1.056 17.61 2.35849V17.3428C17.61 18.6453 18.666 19.7013 19.9685 19.7013Z" fill="black"/>
</svg>
