<svg width="25" height="24" viewBox="0 0 25 24" fill="none" xmlns="http://www.w3.org/2000/svg">
<g clip-path="url(#clip0_15_5459)">
<path d="M12.3334 8C13.4334 8 14.3334 7.1 14.3334 6C14.3334 4.9 13.4334 4 12.3334 4C11.2334 4 10.3334 4.9 10.3334 6C10.3334 7.1 11.2334 8 12.3334 8ZM12.3334 10C11.2334 10 10.3334 10.9 10.3334 12C10.3334 13.1 11.2334 14 12.3334 14C13.4334 14 14.3334 13.1 14.3334 12C14.3334 10.9 13.4334 10 12.3334 10ZM12.3334 16C11.2334 16 10.3334 16.9 10.3334 18C10.3334 19.1 11.2334 20 12.3334 20C13.4334 20 14.3334 19.1 14.3334 18C14.3334 16.9 13.4334 16 12.3334 16Z" fill="black"/>
</g>
<defs>
<clipPath id="clip0_15_5459">
<rect width="24" height="24" fill="white" transform="translate(0.333374)"/>
</clipPath>
</defs>
</svg>
