<svg width="121" height="55" viewBox="0 0 121 55" fill="none" xmlns="http://www.w3.org/2000/svg">
<path d="M30.9726 24.8493C30.5334 24.404 29.8719 24.2634 29.2887 24.4936L21.3632 27.6155L14.8396 22.107C14.3602 21.704 13.6896 21.6242 13.1304 21.9053C12.5712 22.1864 12.2352 22.7722 12.2733 23.3986L12.8019 31.9192L5.56718 36.4182C5.03607 36.7496 4.75488 37.3626 4.84928 37.9813C4.94368 38.5999 5.39655 39.1029 6.00272 39.2587L14.2577 41.4033L16.3093 49.6944C16.4607 50.3037 16.9574 50.7626 17.5764 50.8625C17.9091 50.9162 18.2397 50.8624 18.5276 50.7177C18.7758 50.5929 18.9884 50.4022 19.143 50.1589L23.7167 42.9647L32.2167 43.5868C32.8396 43.6341 33.4292 43.3048 33.7172 42.7487C34.0059 42.1912 33.9337 41.5187 33.5356 41.0349L28.1052 34.4423L31.3091 26.5387C31.5452 25.9582 31.4134 25.2951 30.9726 24.8493Z" fill="#71E9AF"/>
<path d="M74.8597 10.6439C74.6672 10.0488 74.1394 9.62606 73.5148 9.56977L65.0316 8.79948L61.677 0.947895C61.4297 0.372475 60.8664 0 60.2405 0C59.6146 0 59.0513 0.372475 58.804 0.94924L55.4494 8.79948L46.9648 9.56977C46.3414 9.6274 45.8149 10.0488 45.6213 10.6439C45.4278 11.2391 45.6065 11.8919 46.0781 12.3033L52.4905 17.927L50.5996 26.2563C50.4613 26.8687 50.699 27.5017 51.2071 27.8691C51.4803 28.0664 51.7998 28.1669 52.1221 28.1669C52.3999 28.1669 52.6755 28.092 52.9229 27.944L60.2405 23.5704L67.5555 27.944C68.0907 28.266 68.7655 28.2366 69.2725 27.8691C69.7809 27.5006 70.0184 26.8673 69.88 26.2563L67.9892 17.927L74.4015 12.3045C74.8731 11.8919 75.0532 11.2402 74.8597 10.6439Z" fill="#71E9AF"/>
<path d="M115.405 38.8194C115.536 38.2077 115.29 37.5777 114.778 37.2167L107.816 32.308L108.837 23.831C108.91 23.209 108.609 22.6048 108.067 22.2919C107.524 21.9789 106.85 22.0199 106.348 22.3957L99.5176 27.5169L91.7846 23.9417C91.2159 23.6799 90.5492 23.7816 90.084 24.2002C89.6188 24.6189 89.4472 25.2736 89.6499 25.8657L92.3913 33.9421L86.5892 40.21C86.1631 40.6712 86.0525 41.3383 86.3089 41.9105C86.4467 42.218 86.6733 42.4647 86.9523 42.6259C87.1929 42.7648 87.4691 42.8377 87.7573 42.8332L96.2813 42.7045L100.429 50.1495C100.732 50.696 101.331 51.008 101.954 50.9432C102.578 50.8783 103.101 50.4486 103.286 49.8502L105.814 41.6915L114.178 40.0284C114.793 39.9068 115.275 39.4325 115.405 38.8194Z" fill="#71E9AF"/>
</svg>
