<svg width="121" height="55" viewBox="0 0 121 55" fill="none" xmlns="http://www.w3.org/2000/svg">
<path d="M30.9726 24.8493C30.5334 24.404 29.8719 24.2634 29.2887 24.4936L21.3632 27.6155L14.8396 22.107C14.3602 21.704 13.6896 21.6242 13.1304 21.9053C12.5712 22.1864 12.2352 22.7722 12.2733 23.3986L12.8019 31.9192L5.56718 36.4182C5.03607 36.7496 4.75488 37.3626 4.84928 37.9813C4.94368 38.5999 5.39655 39.1029 6.00272 39.2587L14.2577 41.4033L16.3093 49.6944C16.4607 50.3037 16.9574 50.7626 17.5764 50.8625C17.9091 50.9162 18.2397 50.8624 18.5276 50.7177C18.7758 50.5929 18.9884 50.4022 19.143 50.1589L23.7167 42.9647L32.2167 43.5868C32.8396 43.6341 33.4292 43.3048 33.7172 42.7487C34.0059 42.1912 33.9337 41.5187 33.5356 41.0349L28.1052 34.4423L31.3091 26.5387C31.5452 25.9582 31.4134 25.2951 30.9726 24.8493Z" fill="#71E9AF"/>
<path d="M74.3839 10.7977L74.3841 10.7983C74.5158 11.2041 74.3935 11.6471 74.0723 11.9282L74.0719 11.9285L67.6595 17.5511L67.4356 17.7474L67.5016 18.0377L69.3924 26.3667C69.4866 26.7831 69.325 27.2135 68.9791 27.4642L68.9791 27.4642C68.6339 27.7144 68.1761 27.7338 67.8132 27.5155L67.812 27.5148L60.4971 23.1413L60.2405 22.9879L59.984 23.1413L52.6663 27.5148L52.6661 27.5149C52.4962 27.6166 52.3093 27.6669 52.1221 27.6669C51.9044 27.6669 51.6874 27.5992 51.4999 27.4638C51.1551 27.2144 50.9929 26.7848 51.0873 26.3667C51.0873 26.3666 51.0873 26.3665 51.0874 26.3664L52.9781 18.0377L53.044 17.7474L52.8202 17.5511L46.4078 11.9274L46.4069 11.9266C46.087 11.6475 45.965 11.2041 46.0968 10.7985C46.2286 10.3932 46.5862 10.1071 47.0103 10.0677C47.0105 10.0677 47.0107 10.0677 47.0108 10.0676L55.4947 9.29743L55.7919 9.27044L55.9092 8.99595L59.2635 1.14631C59.2636 1.14615 59.2636 1.14598 59.2637 1.14582C59.4327 0.752258 59.8157 0.5 60.2405 0.5C60.6654 0.5 61.0485 0.752413 61.2174 1.14473C61.2175 1.14494 61.2176 1.14514 61.2177 1.14535L64.5718 8.99592L64.689 9.27044L64.9863 9.29743L73.4696 10.0677L73.47 10.0678C73.8946 10.106 74.2531 10.393 74.3839 10.7977Z" stroke="black"/>
<path d="M114.916 38.7147L114.916 38.7152C114.827 39.1326 114.5 39.4551 114.081 39.5379L114.081 39.538L105.716 41.2011L105.424 41.2591L105.336 41.5435L102.809 49.702C102.682 50.1098 102.327 50.4017 101.902 50.4459L101.902 50.4459C101.478 50.49 101.072 50.2779 100.867 49.9074L100.866 49.9062L96.7181 42.4611L96.5726 42.2L96.2737 42.2045L87.7497 42.3333L87.7495 42.3333C87.5515 42.3364 87.3645 42.2865 87.2023 42.1929C87.0138 42.084 86.8597 41.917 86.7651 41.7059C86.5911 41.3176 86.6655 40.8644 86.9563 40.5495C86.9563 40.5494 86.9564 40.5494 86.9564 40.5493L92.7582 34.2818L92.9605 34.0633L92.8648 33.7814L90.1234 25.705L90.1229 25.7038C89.9855 25.3021 90.1015 24.8572 90.4185 24.5719C90.7353 24.2868 91.188 24.2178 91.575 24.3957C91.5752 24.3957 91.5753 24.3958 91.5755 24.3959L99.3078 27.9708L99.5787 28.096L99.8176 27.917L106.647 22.7961C106.647 22.796 106.648 22.7959 106.648 22.7958C106.991 22.5395 107.449 22.5125 107.817 22.7249C108.185 22.9374 108.39 23.3475 108.34 23.7717C108.34 23.7719 108.34 23.7721 108.34 23.7724L107.32 32.2482L107.284 32.5446L107.528 32.7166L114.489 37.6253L114.49 37.6255C114.838 37.871 115.005 38.2988 114.916 38.7147Z" stroke="black"/>
</svg>
