<svg width="44" height="43" viewBox="0 0 44 43" fill="none" xmlns="http://www.w3.org/2000/svg">
<ellipse cx="22.0411" cy="21.5" rx="21.9588" ry="21.5" fill="#FBF1E3"/>
<g clip-path="url(#clip0_15_2436)">
<path d="M24.7428 23.2583C24.4626 23.2583 24.2351 23.0363 24.2343 22.7617C24.2333 22.4867 24.4604 22.263 24.7413 22.2622C26.0191 22.2583 27.2348 21.5029 28.1643 20.1351C29.0565 18.8223 29.5807 17.1055 29.6605 15.2563H27.42C27.139 15.2563 26.9113 15.0334 26.9113 14.7583C26.9113 14.4832 27.139 14.2603 27.42 14.2603H30.1799C30.4609 14.2603 30.6886 14.4832 30.6886 14.7583C30.6886 16.9899 30.0929 19.0953 29.0114 20.687C27.8879 22.3402 26.3726 23.2534 24.7445 23.2583C24.744 23.2583 24.7435 23.2583 24.7428 23.2583Z" fill="#FFB023"/>
<path d="M19.2715 23.2583C19.2708 23.2583 19.2704 23.2583 19.2699 23.2583C17.6419 23.2534 16.1264 22.3402 15.003 20.687C13.9214 19.0953 13.3257 16.9899 13.3257 14.7583C13.3257 14.4832 13.5534 14.2603 13.8344 14.2603H16.5943C16.8753 14.2603 17.103 14.4832 17.103 14.7583C17.103 15.0334 16.8753 15.2563 16.5943 15.2563H14.3538C14.4336 17.1055 14.9578 18.8223 15.85 20.1351C16.7795 21.5029 17.9952 22.2583 19.273 22.2622C19.5539 22.263 19.781 22.4867 19.78 22.7617C19.7792 23.0363 19.5517 23.2582 19.2715 23.2583Z" fill="#FFB023"/>
<path d="M27.4557 13.0332H16.5586C16.2778 13.0332 16.0499 13.2562 16.0499 13.5313C16.0499 16.4569 16.6358 19.2153 17.6995 21.2983C18.3811 22.6328 19.2146 23.6015 20.1363 24.1561V26.8678C20.1363 27.1428 20.3641 27.3658 20.645 27.3658H23.3693C23.6503 27.3658 23.878 27.1428 23.878 26.8678V24.1561C24.7997 23.6017 25.6333 22.6328 26.3147 21.2983C27.3784 19.2153 27.9643 16.4569 27.9643 13.5313C27.9643 13.2562 27.7366 13.0332 27.4557 13.0332Z" fill="#FFB023"/>
<path d="M24.7313 26.3696H19.283C18.2514 26.3696 17.4121 27.1914 17.4121 28.2014V29.5351C17.4121 29.8101 17.6398 30.033 17.9208 30.033H26.0935C26.3745 30.033 26.6022 29.8101 26.6022 29.5351V28.2014C26.6022 27.1914 25.763 26.3696 24.7313 26.3696Z" fill="#FF8E1D"/>
<path d="M26.6384 30.0331H17.376C17.0952 30.0331 16.8673 29.8101 16.8673 29.5352C16.8673 29.2601 17.0952 29.0371 17.376 29.0371H26.6384C26.9193 29.0371 27.1471 29.2601 27.1471 29.5352C27.1471 29.8101 26.9193 30.0331 26.6384 30.0331Z" fill="#FF8E1D"/>
</g>
<defs>
<clipPath id="clip0_15_2436">
<rect width="17.3628" height="17" fill="white" transform="translate(13.3597 13)"/>
</clipPath>
</defs>
</svg>
