<svg width="27" height="23" viewBox="0 0 27 23" fill="none" xmlns="http://www.w3.org/2000/svg">
<path d="M7.33334 12.7381C6.76619 12.5105 6.15853 12.4011 5.54762 12.4167C4.64819 12.4167 3.76895 12.6834 3.0211 13.1831C2.27325 13.6828 1.69037 14.393 1.34617 15.224C1.00197 16.055 0.911912 16.9693 1.08738 17.8515C1.26285 18.7336 1.69597 19.5439 2.33197 20.1799C2.96796 20.8159 3.77827 21.249 4.66042 21.4245C5.54258 21.6 6.45695 21.5099 7.28792 21.1657C8.11889 20.8215 8.82913 20.2387 9.32883 19.4908C9.82853 18.743 10.0952 17.8637 10.0952 16.9643M18.0476 1H20.9881C21.4143 1 21.8231 1.16932 22.1245 1.47072C22.4259 1.77212 22.5952 2.1809 22.5952 2.60714C22.6018 2.82763 22.5629 3.04711 22.481 3.25192C22.3991 3.45674 22.2759 3.64249 22.1191 3.79762L20.3214 5.54762L21.4524 16.9048M20.3214 8.95238H18.0476M18.0476 8.95238L12.3571 16.9048M18.0476 8.95238H10.0952M12.3571 16.9048H5.54762L10.0952 8.95238M12.3571 16.9048L10.0952 8.95238M10.0952 8.95238L10.0952 4.40476M7.82143 4.40476H13.5M26 16.9048C26 19.4163 23.964 21.4524 21.4524 21.4524C18.9408 21.4524 16.9048 19.4163 16.9048 16.9048C16.9048 14.3932 18.9408 12.3571 21.4524 12.3571C23.964 12.3571 26 14.3932 26 16.9048Z" stroke="#020202" stroke-width="2" stroke-miterlimit="10"/>
</svg>
