<svg width="22" height="25" viewBox="0 0 22 25" fill="none" xmlns="http://www.w3.org/2000/svg">
<path d="M19.3328 14.5003L17.4995 10.8337C17.3421 10.5777 17.1214 10.3666 16.8587 10.2206C16.596 10.0747 16.3001 9.99882 15.9996 10.0004H5.66651C5.36598 9.99882 5.0701 10.0747 4.80739 10.2206C4.54467 10.3666 4.32397 10.5777 4.16655 10.8337L2.33327 14.5003L0.266659 16.4202C0.18247 16.4983 0.115325 16.593 0.0694377 16.6982C0.0235501 16.8035 -9.0176e-05 16.9171 2.58485e-07 17.0319V24.1667C2.58485e-07 24.3877 0.0877952 24.5997 0.244071 24.7559C0.400347 24.9122 0.612303 25 0.833311 25H4.16655C4.49988 25 4.99986 24.6667 4.99986 24.3334V23.3334H16.6662V24.1667C16.6662 24.5 16.9995 25 17.3329 25H20.8328C21.0538 25 21.2657 24.9122 21.422 24.7559C21.5783 24.5997 21.6661 24.3877 21.6661 24.1667V17.0319C21.6662 16.9171 21.6425 16.8035 21.5966 16.6982C21.5507 16.593 21.4836 16.4983 21.3994 16.4202L19.3328 14.5003ZM5.83317 11.667H15.8329L17.4995 15.0003H4.16655L5.83317 11.667ZM6.66648 19.3335C6.66648 19.6668 6.1665 20.0001 5.83317 20.0001H2.33327C1.99995 20.0001 1.66662 19.5002 1.66662 19.1668V17.3335C1.83328 16.8336 2.16661 16.5002 2.66659 16.6669L5.99983 17.3335C6.33316 17.3335 6.66648 17.8335 6.66648 18.1669V19.3335ZM19.9994 19.1668C19.9994 19.5002 19.6661 20.0001 19.3328 20.0001H15.8329C15.4996 20.0001 14.9996 19.6668 14.9996 19.3335V18.1669C14.9996 17.8335 15.3329 17.3335 15.6662 17.3335L18.9995 16.6669C19.4995 16.5002 19.8328 16.8336 19.9994 17.3335V19.1668ZM21.6661 3.33393V5.00055C21.6621 5.44626 21.4814 5.87216 21.1635 6.18467C20.8457 6.49718 20.4168 6.67073 19.9711 6.66717H7.24647C6.79992 7.251 6.20954 7.70898 5.53302 7.99635C4.8565 8.28372 4.117 8.39064 3.38679 8.30667C2.65658 8.2227 1.96064 7.95071 1.36701 7.51728C0.773385 7.08385 0.302367 6.50381 2.58485e-07 5.83386H4.16655V2.50062H2.58485e-07C0.302367 1.83067 0.773385 1.25064 1.36701 0.817208C1.96064 0.383778 2.65658 0.111786 3.38679 0.027815C4.117 -0.0561558 4.8565 0.0507684 5.53302 0.338137C6.20954 0.625505 6.79992 1.08348 7.24647 1.66731H19.9711C20.4168 1.66376 20.8457 1.83731 21.1635 2.14981C21.4814 2.46232 21.6621 2.88823 21.6661 3.33393Z" fill="black"/>
</svg>
