<svg width="25" height="25" viewBox="0 0 25 25" fill="none" xmlns="http://www.w3.org/2000/svg">
<path fill-rule="evenodd" clip-rule="evenodd" d="M1.25 24.0625C1.25 24.58 1.67 25 2.1875 25H4.20625C4.42827 25 4.6431 24.9213 4.81249 24.7778C4.98188 24.6342 5.09484 24.4353 5.13125 24.2162L5.625 21.25H19.375L19.8687 24.2162C19.9052 24.4353 20.0181 24.6342 20.1875 24.7778C20.3569 24.9213 20.5717 25 20.7938 25H22.8125C23.0611 25 23.2996 24.9012 23.4754 24.7254C23.6512 24.5496 23.75 24.3111 23.75 24.0625V10L24.725 9.025C24.9009 8.84935 24.9998 8.61106 25 8.3625V5.9375C25 5.68886 24.9012 5.4504 24.7254 5.27459C24.5496 5.09877 24.3111 5 24.0625 5H23.75V3.75625C23.75 2.2925 22.7325 1.0275 21.2875 0.79C19.1238 0.43375 15.8125 0 12.5 0C9.1875 0 5.87625 0.43375 3.7125 0.79C2.2675 1.0275 1.25 2.2925 1.25 3.75625V5H0.9375C0.68886 5 0.450403 5.09877 0.274587 5.27459C0.0987719 5.4504 0 5.68886 0 5.9375V8.3625C0 8.61 0.09875 8.84875 0.275 9.025L1.25 10V24.0625ZM7.5 15.625C7.5 16.1223 7.30246 16.5992 6.95083 16.9508C6.59919 17.3025 6.12228 17.5 5.625 17.5C5.12772 17.5 4.65081 17.3025 4.29917 16.9508C3.94754 16.5992 3.75 16.1223 3.75 15.625C3.75 15.1277 3.94754 14.6508 4.29917 14.2992C4.65081 13.9475 5.12772 13.75 5.625 13.75C6.12228 13.75 6.59919 13.9475 6.95083 14.2992C7.30246 14.6508 7.5 15.1277 7.5 15.625ZM19.375 17.5C19.8723 17.5 20.3492 17.3025 20.7008 16.9508C21.0525 16.5992 21.25 16.1223 21.25 15.625C21.25 15.1277 21.0525 14.6508 20.7008 14.2992C20.3492 13.9475 19.8723 13.75 19.375 13.75C18.8777 13.75 18.4008 13.9475 18.0492 14.2992C17.6975 14.6508 17.5 15.1277 17.5 15.625C17.5 16.1223 17.6975 16.5992 18.0492 16.9508C18.4008 17.3025 18.8777 17.5 19.375 17.5ZM3.75 3.93125V11.25H21.25V3.93125C21.25 3.46875 20.9125 3.075 20.4525 3.01625C18.995 2.82875 15.7475 2.46375 12.5 2.46375C9.2525 2.46375 6.005 2.8275 4.5475 3.01625C4.32594 3.04548 4.12266 3.15456 3.97583 3.32303C3.82899 3.4915 3.74869 3.70777 3.75 3.93125Z" fill="black"/>
</svg>
