<svg width="25" height="22" viewBox="0 0 25 22" fill="none" xmlns="http://www.w3.org/2000/svg">
<path d="M22.5586 10.2363L21.4844 6.09375C21.0156 4.375 19.4531 3.125 17.7344 3.125H17.1875V1.5625C17.1875 0.699707 16.4878 0 15.625 0H9.375C8.51221 0 7.8125 0.699707 7.8125 1.5625V3.125H7.26562C5.54688 3.125 3.98438 4.375 3.51562 6.09375L2.44141 10.2363C1.04541 10.5488 0 11.7905 0 13.2812V15.625C0 16.7788 0.632324 17.7754 1.5625 18.3164V20.3125C1.5625 21.1753 2.26221 21.875 3.125 21.875H4.6875C5.55029 21.875 6.25 21.1753 6.25 20.3125V18.75H18.75V20.3125C18.75 21.1753 19.4497 21.875 20.3125 21.875H21.875C22.7378 21.875 23.4375 21.1753 23.4375 20.3125V18.3164C24.3677 17.7749 25 16.7783 25 15.625V13.2812C25 11.7905 23.9546 10.5488 22.5586 10.2363ZM4.6875 15.625C3.82471 15.625 3.125 14.9253 3.125 14.0625C3.125 13.1997 3.82471 12.5 4.6875 12.5C5.55029 12.5 6.25 13.1997 6.25 14.0625C6.25 14.9253 5.55029 15.625 4.6875 15.625ZM5.69092 10.1562L6.53076 6.91602C6.63965 6.51758 6.99902 6.25 7.26611 6.25H17.7349C18.002 6.25 18.3613 6.51758 18.46 6.87793L19.3091 10.1562H5.69092ZM20.3125 15.625C19.4497 15.625 18.75 14.9253 18.75 14.0625C18.75 13.1997 19.4497 12.5 20.3125 12.5C21.1753 12.5 21.875 13.1997 21.875 14.0625C21.875 14.9253 21.1753 15.625 20.3125 15.625Z" fill="black"/>
</svg>
