<svg width="25" height="21" viewBox="0 0 25 21" fill="none" xmlns="http://www.w3.org/2000/svg">
<path fill-rule="evenodd" clip-rule="evenodd" d="M15.2174 0H19.3854L21.5772 12.0551C23.5341 12.4791 25 14.2206 25 16.3043C25 18.7057 23.0535 20.6522 20.6522 20.6522C18.2509 20.6522 16.3043 18.7057 16.3043 16.3043C16.3043 16.0868 16.3203 15.8729 16.3512 15.6639L15.6306 16.3043H8.69565C8.69565 18.7057 6.74906 20.6522 4.34783 20.6522C1.94659 20.6522 0 18.7057 0 16.3043C0 13.903 1.94659 11.9565 4.34783 11.9565C5.95714 11.9565 7.36223 12.8309 8.114 14.1304H9.64564C9.16298 12.2552 7.4607 10.8696 5.43478 10.8696H0V8.69565H5.43478C8.6663 8.69565 11.3488 11.0459 11.8664 14.1304H14.8041L19.0575 10.3496L17.5712 2.17391H15.2174V0ZM6.52174 16.3043C6.52174 17.5049 5.54845 18.4783 4.34783 18.4783C3.1472 18.4783 2.17391 17.5049 2.17391 16.3043C2.17391 15.1038 3.1472 14.1304 4.34783 14.1304C5.54845 14.1304 6.52174 15.1038 6.52174 16.3043ZM22.8261 16.3043C22.8261 17.5049 21.8528 18.4783 20.6522 18.4783C19.4516 18.4783 18.4783 17.5049 18.4783 16.3043C18.4783 15.1038 19.4516 14.1304 20.6522 14.1304C21.8528 14.1304 22.8261 15.1038 22.8261 16.3043Z" fill="black"/>
</svg>
